<svg width="1110" height="794" viewBox="0 0 1110 794" fill="none" xmlns="http://www.w3.org/2000/svg">
<path fill-rule="evenodd" clip-rule="evenodd" d="M1081 39.6616V754.338L1027.09 793H867.983L815.645 755.464H633.507L627.227 759.593H482.773L477.016 755.464H294.355L242.017 793H82.9085L29 754.338V39.6616L82.9085 1H242.017L294.355 38.5355H477.016L482.773 34.0312H627.227L633.507 38.5355H815.645L867.983 1H1027.09L1081 39.6616ZM1075.77 153.019V41.1631L1025 4.75355H870.077L817.738 42.2891H292.262L239.923 4.75355H85.002L34.2338 41.1631V752.837L85.002 789.246H239.923L292.262 751.711H817.738L870.077 789.246H1025L1075.77 752.837V153.019Z" fill="#A1FCFE"/>
<path fill-rule="evenodd" clip-rule="evenodd" d="M687.991 794H422.009L395.83 775.274H186.396L134.038 737.821H0V479.022L52.3585 441.569V352.431L0 314.978V56.1792H134.038L186.396 18.7264H395.83L422.009 0H687.991L714.17 18.7264H923.604L975.962 56.1792H1110V314.978L1057.64 352.431V441.569L1110 479.022V737.821H975.962L923.604 775.274H714.17L687.991 794ZM426.198 786.509H683.802L709.981 767.783H919.415L971.774 730.33H1099.53V482.392L1047.17 444.94V349.06L1099.53 311.608V63.6698H971.774L919.415 26.217H709.981L683.802 7.49057H426.198L400.019 26.217H190.585L138.226 63.6698H10.4717V311.608L62.8302 349.06V444.94L10.4717 482.392V730.33H138.226L190.585 767.783H400.019L426.198 786.509Z" fill="#A1FCFE"/>
</svg>
