<svg width="340" height="76" viewBox="0 0 340 76" fill="none" xmlns="http://www.w3.org/2000/svg">
<path d="M319 38.0095L294.352 74H253.686L245.958 67.4822H206.553L198.825 74H45.7117L21.064 38.0095L45.7117 2H85.6573L94.1061 9.12589H133.511L141.96 2H294.352L319 38.0095Z" stroke="#A1FCFE" stroke-width="4" stroke-miterlimit="10"/>
<path opacity="0.25" d="M319 38.0095L294.352 74H253.686L245.958 67.4822H206.553L198.825 74H45.7117L21.064 38.0095L45.7117 2H85.6573L94.1061 9.12589H133.511L141.96 2H294.352L319 38.0095Z" fill="white" fill-opacity="0.25"/>
<path d="M339.54 38.0097L323.702 61.1166H313L328.839 38.0097L313 14.8838H323.702L339.54 38.0097Z" fill="#A1FCFE"/>
<path d="M0 38.0097L15.8386 61.1166H26.5177L10.7017 38.0097L26.5177 14.8838H15.8386L0 38.0097Z" fill="#A1FCFE"/>
</svg>
