<svg width="556" height="122" viewBox="0 0 556 122" fill="none" xmlns="http://www.w3.org/2000/svg">
<path d="M522.934 60.7996L482.51 119.568H415.813L403.138 108.925H338.511L325.836 119.568H74.7157L34.291 60.7996L74.7157 2H140.23L154.087 13.6358H218.715L232.571 2H482.51L522.934 60.7996Z" stroke="#7519E4" stroke-width="4" stroke-miterlimit="10"/>
<path opacity="0.25" d="M522.934 60.7996L482.51 119.568H415.813L403.138 108.925H338.51L325.836 119.568H74.7157L34.291 60.7996L74.7157 2H140.23L154.087 13.6358H218.715L232.571 2H482.51L522.934 60.7996Z" fill="white" fill-opacity="0.25"/>
<path d="M556 60.7997L529.69 98.7488H511.912L538.223 60.7997L511.912 22.8193H529.69L556 60.7997Z" fill="#7519E4"/>
<path d="M0 60.7997L25.6016 98.7488H42.8634L17.2983 60.7997L42.8634 22.8193H25.6016L0 60.7997Z" fill="#7519E4"/>
</svg>
